<?xml version="1.0" standalone="no"?>
<!DOCTYPE svg PUBLIC "-//W3C//DTD SVG 20010904//EN"
 "http://www.w3.org/TR/2001/REC-SVG-20010904/DTD/svg10.dtd">
<svg version="1.0" xmlns="http://www.w3.org/2000/svg"
 width="512.000000pt" height="512.000000pt" viewBox="0 0 512.000000 512.000000"
 preserveAspectRatio="xMidYMid meet">

<g transform="translate(0.000000,512.000000) scale(0.100000,-0.100000)"
fill="#000000" stroke="none">
<path d="M560 5110 c-149 -20 -254 -73 -366 -185 -66 -65 -89 -96 -122 -165
-22 -47 -46 -110 -53 -140 -12 -45 -14 -410 -14 -2065 0 -1920 1 -2013 18
-2075 50 -174 181 -334 337 -408 47 -22 110 -46 140 -53 45 -12 410 -14 2065
-14 1920 0 2013 1 2075 18 174 50 334 181 408 337 22 47 46 110 53 140 12 45
14 410 14 2065 0 1920 -1 2013 -18 2075 -48 168 -180 332 -327 404 -158 77 46
70 -2170 72 -1092 1 -2010 -2 -2040 -6z m2188 -691 c681 -74 1269 -514 1525
-1144 52 -128 77 -210 109 -355 19 -92 22 -135 23 -345 0 -213 -3 -253 -23
-355 -49 -239 -153 -495 -277 -680 -234 -348 -577 -610 -971 -739 -188 -62
-311 -83 -520 -88 -216 -6 -338 6 -520 52 -450 113 -829 381 -1089 770 -455
679 -412 1575 105 2210 74 91 236 246 325 312 376 280 855 412 1313 362z"/>
<path d="M2420 3950 c-344 -36 -630 -176 -870 -427 -194 -202 -314 -437 -366
-718 -22 -119 -23 -348 -1 -472 106 -593 577 -1051 1171 -1139 151 -22 360
-14 506 20 271 63 501 194 697 399 183 192 301 417 359 687 26 122 26 410 0
535 -77 368 -283 677 -588 883 -153 103 -356 186 -528 216 -110 19 -285 26
-380 16z m-125 -450 c23 -11 79 -59 126 -108 107 -111 543 -565 632 -658 95
-99 113 -168 67 -254 -15 -29 -748 -790 -794 -825 -48 -36 -126 -52 -184 -36
-107 28 -171 104 -179 214 -7 95 16 129 281 404 126 131 238 252 248 268 20
34 23 90 5 121 -7 12 -121 135 -254 274 -133 140 -250 269 -259 289 -54 114
-3 261 110 312 56 25 148 25 201 -1z"/>
</g>
</svg>
